<svg id="Component_1_3" data-name="Component 1 – 3" xmlns="http://www.w3.org/2000/svg" width="215.145" height="200.926" viewBox="0 0 215.145 200.926">
  <g id="Path_11" data-name="Path 11" transform="translate(0 0)" fill="rgba(99,90,126,0.99)">
    <path d="M 107.5726776123047 200.4261016845703 C 100.3054275512695 200.4261016845703 93.04293060302734 199.7423858642578 85.98686981201172 198.3939361572266 C 79.11073303222656 197.0798797607422 72.34720611572266 195.119140625 65.88423156738281 192.5661926269531 C 59.53898239135742 190.0597381591797 53.41912078857422 186.9575500488281 47.69456481933594 183.3457183837891 C 42.02492904663086 179.7685546875 36.69356536865234 175.6604919433594 31.84859466552734 171.1357421875 C 27.00420570373535 166.6115264892578 22.60623359680176 161.6334686279297 18.7768440246582 156.3398590087891 C 14.91128826141357 150.9962463378906 11.59128856658936 145.2839050292969 8.909066200256348 139.3615264892578 C 6.177594184875488 133.3304138183594 4.079788684844971 127.0190811157227 2.673927545547485 120.6028594970703 C 1.231427669525146 114.0194091796875 0.5000109672546387 107.243408203125 0.5000109672546387 100.4630508422852 C 0.5000109672546387 93.68269348144531 1.231427669525146 86.90669250488281 2.673927545547485 80.3232421875 C 4.079788684844971 73.90702056884766 6.177594184875488 67.59568786621094 8.909066200256348 61.56457901000977 C 11.59128856658936 55.64218902587891 14.91128826141357 49.92985534667969 18.7768440246582 44.58624649047852 C 22.60623359680176 39.29263305664063 27.00420570373535 34.31457901000977 31.84859466552734 29.79035568237305 C 36.69356536865234 25.26560592651367 42.02492904663086 21.15755081176758 47.69456481933594 17.58038330078125 C 53.41912078857422 13.96855068206787 59.53898239135742 10.86635684967041 65.88423156738281 8.359911918640137 C 72.34720611572266 5.806967735290527 79.11073303222656 3.846217393875122 85.98686981201172 2.532161951065063 C 93.04293060302734 1.183717489242554 100.3054275512695 0.4999952912330627 107.5726776123047 0.4999952912330627 C 114.8399276733398 0.4999952912330627 122.102424621582 1.183717489242554 129.1584777832031 2.532161951065063 C 136.0346221923828 3.846217393875122 142.7981567382813 5.806967735290527 149.2611236572266 8.359911918640137 C 155.6063690185547 10.86635684967041 161.7262573242188 13.96855068206787 167.4507904052734 17.58038330078125 C 173.1204528808594 21.15755081176758 178.4518127441406 25.26560592651367 183.2967834472656 29.79035568237305 C 188.1411437988281 34.31457901000977 192.5391235351563 39.29263305664063 196.3685455322266 44.58624649047852 C 200.2341003417969 49.92985534667969 203.5540924072266 55.64218902587891 206.2363128662109 61.56457901000977 C 208.9677886962891 67.59568786621094 211.0655975341797 73.90702056884766 212.4714508056641 80.3232421875 C 213.9139556884766 86.90669250488281 214.6453704833984 93.68269348144531 214.6453704833984 100.4630508422852 C 214.6453704833984 113.6757202148438 211.9222869873047 126.5092468261719 206.5517272949219 138.6071014404297 C 203.9606018066406 144.4440460205078 200.7445068359375 150.096435546875 196.9928131103516 155.4072418212891 C 193.2745666503906 160.6707458496094 188.9886779785156 165.6579132080078 184.2542114257813 170.230224609375 C 179.4633483886719 174.8575744628906 174.1438446044922 179.0708618164063 168.4434204101563 182.7530822753906 C 162.6855316162109 186.472412109375 156.5027923583984 189.6729888916016 150.0668792724609 192.2659149169922 C 143.501953125 194.9107971191406 136.6205444335938 196.9442138671875 129.6137542724609 198.3096923828125 C 122.4074554443359 199.7140502929688 114.9917907714844 200.4261016845703 107.5726776123047 200.4261016845703 Z" stroke="none"/>
    <path d="M 107.5726776123047 1 C 100.3368453979492 1 93.10590362548828 1.68072509765625 86.08073425292969 3.023269653320313 C 79.23519897460938 4.331497192382813 72.50190734863281 6.283462524414063 66.06793212890625 8.824935913085938 C 59.75157165527344 11.31996154785156 53.65965270996094 14.40798950195313 47.96136474609375 18.00325012207031 C 42.3182373046875 21.563720703125 37.01193237304688 25.65240478515625 32.18984985351563 30.15577697753906 C 27.36898803710938 34.65802001953125 22.99247741699219 39.61174011230469 19.18193054199219 44.87930297851563 C 15.33598327636719 50.19583129882813 12.03292846679688 55.87896728515625 9.364517211914063 61.77085876464844 C 6.647430419921875 67.77018737792969 4.560699462890625 74.04813385009766 3.162322998046875 80.43027496337891 C 1.72747802734375 86.97860717773438 0.9999847412109375 93.71860504150391 0.9999847412109375 100.4630508422852 C 0.9999847412109375 107.2074966430664 1.72747802734375 113.9474945068359 3.162322998046875 120.4958267211914 C 4.560699462890625 126.8779678344727 6.647430419921875 133.1559143066406 9.364517211914063 139.1552429199219 C 12.03292846679688 145.0471343994141 15.33598327636719 150.7302703857422 19.18193054199219 156.0467987060547 C 22.99247741699219 161.3143615722656 27.36898803710938 166.2680816650391 32.18984985351563 170.7703247070313 C 37.01193237304688 175.273681640625 42.3182373046875 179.3623809814453 47.96136474609375 182.9228515625 C 53.65965270996094 186.5181121826172 59.75157165527344 189.6061401367188 66.06793212890625 192.1011657714844 C 72.50190734863281 194.6426391601563 79.23519897460938 196.5946044921875 86.08073425292969 197.90283203125 C 93.10590362548828 199.2453918457031 100.3368453979492 199.9261016845703 107.5726776123047 199.9261016845703 C 114.9597625732422 199.9261016845703 122.34326171875 199.2171325683594 129.5181274414063 197.8189086914063 C 136.4937896728516 196.4595184326172 143.3445129394531 194.4351654052734 149.8800354003906 191.8021392822266 C 156.2865295410156 189.2210845947266 162.4408721923828 186.0352172851563 168.1721496582031 182.3330841064453 C 173.8453674316406 178.6684112548828 179.1392517089844 174.4754333496094 183.9068756103516 169.8705444335938 C 188.6188659667969 165.3199768066406 192.8842315673828 160.3567504882813 196.5844268798828 155.1187744140625 C 200.3171844482422 149.8347473144531 203.5169067382813 144.211181640625 206.0947265625 138.4042358398438 C 211.4367370605469 126.3706588745117 214.1453399658203 113.6053848266602 214.1453399658203 100.4630508422852 C 214.1453399658203 93.71860504150391 213.4178466796875 86.97860717773438 211.9830169677734 80.43027496337891 C 210.5846252441406 74.04813385009766 208.4978942871094 67.77018737792969 205.7808227539063 61.77085876464844 C 203.1123962402344 55.87896728515625 199.8093414306641 50.19583129882813 195.9633941650391 44.87930297851563 C 192.1528472900391 39.61174011230469 187.7763671875 34.65802001953125 182.9555053710938 30.15577697753906 C 178.1334228515625 25.65240478515625 172.8271179199219 21.563720703125 167.1839904785156 18.00325012207031 C 161.4857025146484 14.40798950195313 155.3937835693359 11.31996154785156 149.0774230957031 8.824935913085938 C 142.6434631347656 6.283462524414063 135.91015625 4.331497192382813 129.0646209716797 3.023269653320313 C 122.0394515991211 1.68072509765625 114.8085098266602 1 107.5726776123047 1 M 107.5726776123047 0 C 166.9834289550781 0 215.1453399658203 44.97883605957031 215.1453399658203 100.4630508422852 C 215.1453399658203 127.5946884155273 203.6289520263672 152.2142639160156 184.6015319824219 170.5898895263672 C 165.3534545898438 189.1810455322266 137.9317321777344 200.9261016845703 107.5726776123047 200.9261016845703 C 48.16192626953125 200.9261016845703 -1.52587890625e-05 155.947265625 -1.52587890625e-05 100.4630508422852 C -1.52587890625e-05 44.97883605957031 48.16192626953125 0 107.5726776123047 0 Z" stroke="none" fill="#707070"/>
  </g>
  <g id="Ellipse_2" data-name="Ellipse 2" transform="translate(54 51)" fill="rgba(205,188,253,0.99)" stroke="#707070" stroke-width="1">
    <ellipse cx="27" cy="24.5" rx="27" ry="24.5" stroke="none"/>
    <ellipse cx="27" cy="24.5" rx="26.5" ry="24" fill="none"/>
  </g>
</svg>
